name C:\Users\u0101727\Documents\MyRepositories\upper-imu-dc\Results\main_tracking\Case_40\FLX01_linearAccelerations_bodyFrame.mot
datacolumns 4
datarows 82
range 3.51000000 4.32000000
endheader 
time	radius_imu_x	radius_imu_y	radius_imu_z	
          3.51000000	         -0.84439837	         -9.51388130	          1.96082490	
          3.52000000	         -0.93804248	         -9.50048270	          1.94459482	
          3.53000000	         -0.99698511	         -9.48127507	          1.95926118	
          3.54000000	         -1.01940550	         -9.45600795	          2.00490497	
          3.55000000	         -1.00803606	         -9.42562219	          2.07867441	
          3.56000000	         -0.96999538	         -9.39283086	          2.17508139	
          3.57000000	         -0.91571491	         -9.36211062	          2.28682111	
          3.58000000	         -0.85728681	         -9.33868483	          2.40584180	
          3.59000000	         -0.80633490	         -9.32667308	          2.52434830	
          3.60000000	         -0.77159633	         -9.32755230	          2.63550730	
          3.61000000	         -0.75693558	         -9.34002055	          2.73377899	
          3.62000000	         -0.76073248	         -9.36108182	          2.81496466	
          3.63000000	         -0.77687393	         -9.38722521	          2.87614399	
          3.64000000	         -0.79667320	         -9.41501750	          2.91564109	
          3.65000000	         -0.81106933	         -9.44143857	          2.93301448	
          3.66000000	         -0.81259551	         -9.46429546	          2.92898240	
          3.67000000	         -0.79636377	         -9.48240642	          2.90525169	
          3.68000000	         -0.75992605	         -9.49500228	          2.86432072	
          3.69000000	         -0.70278500	         -9.50074980	          2.80928926	
          3.70000000	         -0.62612156	         -9.49745543	          2.74363167	
          3.71000000	         -0.53239987	         -9.48300026	          2.67084494	
          3.72000000	         -0.42421592	         -9.45728590	          2.59391254	
          3.73000000	         -0.30306429	         -9.42373375	          2.51496323	
          3.74000000	         -0.16959703	         -9.38907362	          2.43556347	
          3.75000000	         -0.02572182	         -9.36157952	          2.35746243	
          3.76000000	          0.12299000	         -9.34871192	          2.28322170	
          3.77000000	          0.26681076	         -9.35468157	          2.21637624	
          3.78000000	          0.39453414	         -9.37826697	          2.16101284	
          3.79000000	          0.49788027	         -9.41192616	          2.12097616	
          3.80000000	          0.57439669	         -9.44345061	          2.09921265	
          3.81000000	          0.62720193	         -9.46000796	          2.09748761	
          3.82000000	          0.66228546	         -9.45259296	          2.11626947	
          3.83000000	          0.68491164	         -9.41855957	          2.15462850	
          3.84000000	          0.69703196	         -9.36131515	          2.21033100	
          3.85000000	          0.69729732	         -9.28806605	          2.28031349	
          3.86000000	          0.68325479	         -9.20724529	          2.36139681	
          3.87000000	          0.65366821	         -9.12670847	          2.45085026	
          3.88000000	          0.60975959	         -9.05278573	          2.54646744	
          3.89000000	          0.55570816	         -8.98979743	          2.64617347	
          3.90000000	          0.49844367	         -8.94012434	          2.74753910	
          3.91000000	          0.44599135	         -8.90520656	          2.84748932	
          3.92000000	          0.40454319	         -8.88677779	          2.94215262	
          3.93000000	          0.37598147	         -8.88652583	          3.02683577	
          3.94000000	          0.35749805	         -8.90360100	          3.09633143	
          3.95000000	          0.34310324	         -8.93223144	          3.14562012	
          3.96000000	          0.32580249	         -8.96214415	          3.17069239	
          3.97000000	          0.29995727	         -8.98159008	          3.16916298	
          3.98000000	          0.26349323	         -8.98074022	          3.14051307	
          3.99000000	          0.21883119	         -8.95382894	          3.08605378	
          4.00000000	          0.17186618	         -8.89969502	          3.00886345	
          4.01000000	          0.12971575	         -8.82122318	          2.91373697	
          4.02000000	          0.09848755	         -8.72450436	          2.80687530	
          4.03000000	          0.08165569	         -8.61792929	          2.69531361	
          4.04000000	          0.07867384	         -8.51088816	          2.58649698	
          4.05000000	          0.08333265	         -8.41224496	          2.48811226	
          4.06000000	          0.08261310	         -8.32915639	          2.40785541	
          4.07000000	          0.05761093	         -8.26641461	          2.35291530	
          4.08000000	         -0.01303167	         -8.22613126	          2.32924391	
          4.09000000	         -0.14831262	         -8.20755553	          2.34073304	
          4.10000000	         -0.36021561	         -8.20679266	          2.38848032	
          4.11000000	         -0.65044935	         -8.21632456	          2.47050227	
          4.12000000	         -1.00972981	         -8.22504377	          2.58204159	
          4.13000000	         -1.42053777	         -8.22018676	          2.71607449	
          4.14000000	         -1.86253454	         -8.19132295	          2.86367067	
          4.15000000	         -2.31770431	         -8.13432656	          3.01440690	
          4.16000000	         -2.77235307	         -8.05278536	          3.15720551	
          4.17000000	         -3.21518219	         -7.95605593	          3.28172515	
          4.18000000	         -3.63356202	         -7.85565730	          3.38001587	
          4.19000000	         -4.01165694	         -7.76263749	          3.44781823	
          4.20000000	         -4.33180708	         -7.68660373	          3.48515864	
          4.21000000	         -4.57721921	         -7.63470199	          3.49645710	
          4.22000000	         -4.73358926	         -7.60906418	          3.49037221	
          4.23000000	         -4.78934080	         -7.60356574	          3.47911579	
          4.24000000	         -4.73668413	         -7.60273786	          3.47664701	
          4.25000000	         -4.57602601	         -7.58518337	          3.49556509	
          4.26000000	         -4.32236057	         -7.53046982	          3.54372278	
          4.27000000	         -4.00721103	         -7.42561360	          3.62258071	
          4.28000000	         -3.67130639	         -7.26840962	          3.72845808	
          4.29000000	         -3.35353397	         -7.06797713	          3.85512260	
          4.30000000	         -3.08671157	         -6.84351972	          3.99506494	
          4.31000000	         -2.90123879	         -6.62086856	          4.13917678	
          4.32000000	         -2.82706647	         -6.42652591	          4.27694786	
